# File exported by Houdini 21.0.729 (www.sidefx.com)
# 152 points
# 448 vertices
# 112 primitives
# Bounds: [-8.24917507, -1.31130219e-06, -8.41634846] to [8.24917507, 8.12007809, 8.41634846]
mtllib picnic_table.mtl
g default
v -7.38263035 0 -5.98153734
v -7.3826313 7.79527426 -0.516252339
v -7.38263035 -1.31130219e-06 -7.58736992
v -7.3826313 7.79527235 -2.12208486
v -7.80883408 0 -5.98153734
v -7.80883455 7.79527426 -0.516252339
v -7.8088336 -1.31130219e-06 -7.58736992
v -7.80883455 7.79527235 -2.12208486
v -7.38263035 0 5.98154879
v -7.38263035 -1.31130219e-06 7.58738184
v -7.3826313 7.79527235 2.12209654
v -7.3826313 7.79527426 0.516263902
v -7.80883408 0 5.98154879
v -7.80883455 7.79527426 0.516263902
v -7.80883455 7.79527235 2.12209654
v -7.8088336 -1.31130219e-06 7.58738184
v -6.95642662 6.49606276 -3.55765438
v -6.95642805 6.49606276 3.5576539
v -6.95642662 7.79527521 -3.98974109
v -6.95642805 7.79527521 3.98974061
v -7.38262892 6.49606276 -3.55765438
v -7.38262939 6.49606276 3.5576539
v -7.38262892 7.79527521 -3.98974109
v -7.38262939 7.79527521 3.98974061
v -6.95642662 3.08564234 -7.74818325
v -6.95642805 3.08564234 7.7481823
v -6.95642662 4.38485479 -8.28255844
v -6.95642805 4.38485479 8.28255749
v -7.38263035 3.08564234 -7.74818325
v -7.3826313 3.08564234 7.7481823
v -7.38263035 4.38485479 -8.28255844
v -7.3826313 4.38485479 8.28255749
v 7.38264036 0 -5.98153687
v 7.38264036 -1.31130219e-06 -7.58736992
v 7.38264227 7.79527235 -2.12208486
v 7.38264227 7.79527426 -0.516252339
v 7.80884504 0 -5.98153687
v 7.80884504 7.79527426 -0.516252339
v 7.80884504 7.79527235 -2.12208486
v 7.80884409 -1.31130219e-06 -7.58736992
v 7.38264036 0 5.98154879
v 7.38264227 7.79527426 0.516263902
v 7.38264227 7.79527235 2.12209654
v 7.38264036 -1.31130219e-06 7.58738184
v 7.80884504 0 5.98154879
v 7.80884409 -1.31130219e-06 7.58738184
v 7.80884504 7.79527235 2.12209654
v 7.80884504 7.79527426 0.516263902
v 6.95643759 6.49606276 -3.55765438
v 6.95643759 7.79527521 -3.98974109
v 6.95643759 7.79527521 3.98974061
v 6.95643759 6.49606276 3.5576539
v 7.38263941 6.49606276 -3.55765438
v 7.38264036 6.49606276 3.5576539
v 7.38264036 7.79527521 3.98974061
v 7.38263941 7.79527521 -3.98974109
v 6.95643759 3.08564234 -7.74818325
v 6.95643759 4.38485479 -8.28255844
v 6.95643759 4.38485479 8.28255749
v 6.95643759 3.08564234 7.7481823
v 7.38264036 3.08564234 -7.74818325
v 7.38264227 3.08564234 7.7481823
v 7.38264227 4.38485479 8.28255749
v 7.38264036 4.38485479 -8.28255844
v -8.24917507 4.38485432 7.0489254
v 8.24917507 4.38485432 7.0489254
v -8.24917507 4.38485432 5.81142569
v 8.24917507 4.38485432 5.81142569
v -8.24917507 4.70965719 7.0489254
v 8.24917507 4.70965719 7.0489254
v -8.24917507 4.70965719 5.81142569
v 8.24917507 4.70965719 5.81142569
v -8.24917507 4.38485432 8.41634846
v 8.24917507 4.38485432 8.41634846
v -8.24917507 4.38485432 7.17884827
v 8.24917507 4.38485432 7.17884827
v -8.24917507 4.70965719 8.41634846
v 8.24917507 4.70965719 8.41634846
v -8.24917507 4.70965719 7.17884827
v 8.24917507 4.70965719 7.17884827
v -8.24917507 4.38485432 -7.0489254
v -8.24917507 4.38485432 -5.81142569
v 8.24917507 4.38485432 -5.81142569
v 8.24917507 4.38485432 -7.0489254
v -8.24917507 4.70965719 -7.0489254
v 8.24917507 4.70965719 -7.0489254
v 8.24917507 4.70965719 -5.81142569
v -8.24917507 4.70965719 -5.81142569
v -8.24917507 4.38485432 -8.41634846
v -8.24917507 4.38485432 -7.17884827
v 8.24917507 4.38485432 -7.17884827
v 8.24917507 4.38485432 -8.41634846
v -8.24917507 4.70965719 -8.41634846
v 8.24917507 4.70965719 -8.41634846
v 8.24917507 4.70965719 -7.17884827
v -8.24917507 4.70965719 -7.17884827
v -8.24917507 7.79527521 -2.79980707
v 8.24917507 7.79527521 -2.79980707
v -8.24917507 7.79527521 -4.03730679
v 8.24917507 7.79527521 -4.03730679
v -8.24917507 8.12007809 -2.79980707
v 8.24917507 8.12007809 -2.79980707
v -8.24917507 8.12007809 -4.03730679
v 8.24917507 8.12007809 -4.03730679
v -8.24917507 7.79527521 -1.43238413
v 8.24917507 7.79527521 -1.43238413
v -8.24917507 7.79527521 -2.6698842
v 8.24917507 7.79527521 -2.6698842
v -8.24917507 8.12007809 -1.43238413
v 8.24917507 8.12007809 -1.43238413
v -8.24917507 8.12007809 -2.6698842
v 8.24917507 8.12007809 -2.6698842
v -8.24917507 7.79527521 -0.0649613887
v 8.24917507 7.79527521 -0.0649613887
v -8.24917507 7.79527521 -1.30246139
v 8.24917507 7.79527521 -1.30246139
v -8.24917507 8.12007809 -0.0649613887
v 8.24917507 8.12007809 -0.0649613887
v -8.24917507 8.12007809 -1.30246139
v 8.24917507 8.12007809 -1.30246139
v -8.24917507 7.79527521 1.30246139
v 8.24917507 7.79527521 1.30246139
v -8.24917507 7.79527521 0.0649613887
v 8.24917507 7.79527521 0.0649613887
v -8.24917507 8.12007809 1.30246139
v 8.24917507 8.12007809 1.30246139
v -8.24917507 8.12007809 0.0649613887
v 8.24917507 8.12007809 0.0649613887
v -8.24917507 7.79527521 2.6698842
v 8.24917507 7.79527521 2.6698842
v -8.24917507 7.79527521 1.43238413
v 8.24917507 7.79527521 1.43238413
v -8.24917507 8.12007809 2.6698842
v 8.24917507 8.12007809 2.6698842
v -8.24917507 8.12007809 1.43238413
v 8.24917507 8.12007809 1.43238413
v -8.24917507 7.79527521 4.03730679
v 8.24917507 7.79527521 4.03730679
v -8.24917507 7.79527521 2.79980707
v 8.24917507 7.79527521 2.79980707
v -8.24917507 8.12007809 4.03730679
v 8.24917507 8.12007809 4.03730679
v -8.24917507 8.12007809 2.79980707
v 8.24917507 8.12007809 2.79980707
v -6.95642614 3.08564138 -0.162401631
v 6.95643759 3.08564138 -0.162401631
v -6.95642614 4.38485384 -0.162401631
v 6.95643759 4.38485384 -0.162401631
v -6.95642614 3.08564138 0.162401631
v 6.95643759 3.08564138 0.162401631
v -6.95642614 4.38485384 0.162401631
v 6.95643759 4.38485384 0.162401631
vt 0.401784241 0.00202540099 0
vt 0.440376341 0.0570703112 0
vt 0.0418270528 0.0570704304 0
vt 0.0032351939 0.0020255202 0
vt 0.401784241 0.12995775 0
vt 0.00323495548 0.129957512 0
vt 0.041827172 0.0749129578 0
vt 0.440376341 0.0749133155 0
vt 0.401784241 0.147799805 0
vt 0.00323495548 0.147799924 0
vt 0.648275614 0.22947517 0
vt 0.84077245 0.22947517 0
vt 0.84077245 0.280565798 0
vt 0.648275614 0.280565798 0
vt 0.499442548 0.0128739327 0
vt 0.499442488 0.205370799 0
vt 0.448351741 0.205370799 0
vt 0.448351771 0.0128739327 0
vt 0.401640624 0.296755731 0
vt 0.00309194112 0.296755731 0
vt 0.041683808 0.241711125 0
vt 0.440232366 0.241711006 0
vt 0.401640981 0.168823481 0
vt 0.440232366 0.223868236 0
vt 0.041683808 0.223868355 0
vt 0.00309217954 0.168823481 0
vt 0.401640981 0.150980949 0
vt 0.00309217954 0.150981426 0
vt 0.45082432 0.286958784 0
vt 0.45082432 0.235868052 0
vt 0.643321097 0.235868052 0
vt 0.643321097 0.286958784 0
vt 0.903646767 0.372793466 0
vt 0.849566519 0.390993327 0
vt 0.849566281 0.0548834912 0
vt 0.903646708 0.0730836466 0
vt 0.921386898 0.372793466 0
vt 0.921386957 0.0730836466 0
vt 0.975467205 0.0548830144 0
vt 0.975467265 0.390993327 0
vt 0.678526521 0.00497921975 0
vt 0.84191823 0.00497921975 0
vt 0.84191823 0.0557796583 0
vt 0.678526521 0.0557796583 0
vt 0.993207932 0.0548830144 0
vt 0.99320811 0.390993327 0
vt 0.841917753 0.0557781085 0
vt 0.678525686 0.0557781085 0
vt 0.678525686 0.00497740181 0
vt 0.841917753 0.00497740181 0
vt 0.835284472 0.972442567 0
vt 0.781321049 0.99499625 0
vt 0.781321168 0.295846492 0
vt 0.835284472 0.318400294 0
vt 0.709656 0.972442567 0
vt 0.709656119 0.318400323 0
vt 0.763618946 0.295846492 0
vt 0.763619065 0.994996727 0
vt 0.69195348 0.972442567 0
vt 0.691953659 0.318400323 0
vt 0.506319225 0.0653994977 0
vt 0.673792899 0.0653994977 0
vt 0.673792899 0.116090029 0
vt 0.506319225 0.116090029 0
vt 0.673792422 0.116086394 0
vt 0.506317675 0.116086394 0
vt 0.506317675 0.0653959811 0
vt 0.673792422 0.0653959811 0
vt 0.401641577 0.296754897 0
vt 0.00309194112 0.296755493 0
vt 0.041683808 0.24171041 0
vt 0.440234035 0.241710052 0
vt 0.44023332 0.223867878 0
vt 0.0416832119 0.223868355 0
vt 0.00309086824 0.168823957 0
vt 0.0030903914 0.150981426 0
vt 0.44037658 0.0570698343 0
vt 0.0418287218 0.0570700727 0
vt 0.00323662441 0.00202587782 0
vt 0.401787102 0.129957989 0
vt 0.00323924702 0.129958346 0
vt 0.0418295562 0.0749129578 0
vt 0.440377176 0.0749126002 0
vt 0.401787102 0.14780052 0
vt 0.00323972385 0.14780052 0
vt 0.84077245 0.280565858 0
vt 0.648275614 0.280565858 0
vt 0.903646827 0.0730836466 0
vt 0.903646648 0.372793466 0
vt 0.849566519 0.390993804 0
vt 0.975467086 0.0548830144 0
vt 0.975467145 0.390993804 0
vt 0.921387136 0.372793466 0
vt 0.678784549 0.116162971 0
vt 0.678784549 0.0653618723 0
vt 0.842175543 0.0653618723 0
vt 0.842175543 0.116162971 0
vt 0.99320823 0.390993327 0
vt 0.993207932 0.0548834912 0
vt 0.678784788 0.116162792 0
vt 0.678784788 0.065363422 0
vt 0.842176378 0.065363422 0
vt 0.842176378 0.116162792 0
vt 0.835284352 0.318400294 0
vt 0.835284352 0.972443759 0
vt 0.781321287 0.994997919 0
vt 0.709656 0.318400323 0
vt 0.763619304 0.295846492 0
vt 0.763619065 0.994997919 0
vt 0.709656 0.972443759 0
vt 0.691953599 0.972443759 0
vt 0.507375538 0.0551479161 0
vt 0.507375538 0.00445709657 0
vt 0.674850285 0.00445709657 0
vt 0.674850285 0.0551479161 0
vt 0.506317914 0.116089493 0
vt 0.506317914 0.0653985739 0
vt 0.673792899 0.0653985739 0
vt 0.673792899 0.116089493 0
vt 0.602826357 0.305115789 0
vt 0.551020682 0.305115789 0
vt 0.551020741 0.995790601 0
vt 0.602826536 0.995790601 0
vt 0.616423607 0.305115789 0
vt 0.616423786 0.995790601 0
vt 0.66822952 0.995790601 0
vt 0.668229401 0.305115789 0
vt 0.515867054 0.166164145 0
vt 0.664210737 0.166164145 0
vt 0.664211333 0.127227515 0
vt 0.515867054 0.127227515 0
vt 0.681827009 0.995790601 0
vt 0.681827009 0.305115789 0
vt 0.664210737 0.127228945 0
vt 0.51586622 0.127229586 0
vt 0.51586622 0.166164145 0
vt 0.467561632 0.305277109 0
vt 0.415755898 0.305277109 0
vt 0.415755898 0.995953321 0
vt 0.467561632 0.995952964 0
vt 0.481158942 0.305277109 0
vt 0.481158942 0.995952964 0
vt 0.532965124 0.995952964 0
vt 0.532965124 0.305277109 0
vt 0.679038525 0.168141201 0
vt 0.827383757 0.168141201 0
vt 0.827383757 0.129205212 0
vt 0.679038525 0.129205212 0
vt 0.546562374 0.995952964 0
vt 0.546562135 0.305277109 0
vt 0.827383757 0.129208326 0
vt 0.679038525 0.129208326 0
vt 0.60282594 0.305116177 0
vt 0.60282594 0.995790958 0
vt 0.551020145 0.995790958 0
vt 0.551020145 0.305116177 0
vt 0.616423368 0.305116177 0
vt 0.668229401 0.305116177 0
vt 0.668229401 0.995790958 0
vt 0.616423368 0.995790958 0
vt 0.515865505 0.166164145 0
vt 0.515865505 0.127228543 0
vt 0.664210737 0.127228543 0
vt 0.681826532 0.995790958 0
vt 0.68182683 0.305116177 0
vt 0.664210737 0.166165322 0
vt 0.515865743 0.166165322 0
vt 0.515865743 0.127228945 0
vt 0.467561632 0.305277795 0
vt 0.41575554 0.995952964 0
vt 0.41575554 0.305277795 0
vt 0.481158882 0.305277795 0
vt 0.532965124 0.305277795 0
vt 0.481158882 0.995952964 0
vt 0.546562135 0.995952964 0
vt 0.546562135 0.305277795 0
vt 0.827383757 0.168143153 0
vt 0.679038525 0.168143153 0
vt 0.133432537 0.306557626 0
vt 0.0816264525 0.306557715 0
vt 0.0816265419 0.997232437 0
vt 0.133432537 0.997232318 0
vt 0.0162231494 0.306557715 0
vt 0.0162231494 0.997232437 0
vt 0.0680290088 0.997232437 0
vt 0.0680290088 0.306557715 0
vt 0.00262596575 0.306557715 0
vt 0.00262596575 0.997232437 0
vt 0.514223158 0.214416921 0
vt 0.662567437 0.214416921 0
vt 0.662567437 0.175480604 0
vt 0.514223158 0.175480604 0
vt 0.662567437 0.17547968 0
vt 0.51422292 0.17547968 0
vt 0.51422292 0.214416921 0
vt 0.27158016 0.306097239 0
vt 0.219774187 0.306097239 0
vt 0.219774187 0.996772766 0
vt 0.27158016 0.996772766 0
vt 0.154370964 0.306097239 0
vt 0.154371113 0.996772766 0
vt 0.206177011 0.996772766 0
vt 0.206176847 0.306097239 0
vt 0.140773743 0.306097239 0
vt 0.140773743 0.996772766 0
vt 0.677497506 0.216132388 0
vt 0.825842261 0.216132388 0
vt 0.825842261 0.177197501 0
vt 0.677497506 0.177197501 0
vt 0.825842261 0.177196488 0
vt 0.677498221 0.177196488 0
vt 0.677498221 0.216132388 0
vt 0.409707248 0.305711031 0
vt 0.357901543 0.305711031 0
vt 0.357901543 0.996386528 0
vt 0.409707248 0.996386528 0
vt 0.292498112 0.305711031 0
vt 0.292498112 0.996386528 0
vt 0.344304085 0.996386528 0
vt 0.344304085 0.305711031 0
vt 0.278900772 0.305711031 0
vt 0.278900772 0.996386528 0
vt 0.847752035 0.0440823585 0
vt 0.996096492 0.0440823585 0
vt 0.996096492 0.00514602149 0
vt 0.847752035 0.00514602149 0
vt 0.996096492 0.00514704967 0
vt 0.847751796 0.00514704967 0
vt 0.847751796 0.0440823585 0
vt 0.357901305 0.305711508 0
vt 0.409707576 0.305711508 0
vt 0.409707576 0.996386766 0
vt 0.357901305 0.996386766 0
vt 0.344304085 0.305711508 0
vt 0.344304085 0.996386766 0
vt 0.29249832 0.996386766 0
vt 0.29249832 0.305711508 0
vt 0.847752571 0.0440823585 0
vt 0.847752571 0.00514679635 0
vt 0.996096492 0.00514679635 0
vt 0.278900951 0.996386766 0
vt 0.278900951 0.305711508 0
vt 0.847752571 0.00514836097 0
vt 0.996096492 0.00514836097 0
vt 0.996096492 0.044083789 0
vt 0.847752571 0.044083789 0
vt 0.219774291 0.306097806 0
vt 0.271580309 0.306097806 0
vt 0.271580309 0.996772885 0
vt 0.219774291 0.996772766 0
vt 0.206177011 0.306097806 0
vt 0.154370964 0.996772885 0
vt 0.154371113 0.306097806 0
vt 0.677497506 0.177197918 0
vt 0.140773743 0.996772885 0
vt 0.140773743 0.306097537 0
vt 0.677498221 0.177196726 0
vt 0.825842977 0.177196726 0
vt 0.825842977 0.216134086 0
vt 0.677498221 0.216134086 0
vt 0.081626378 0.306557924 0
vt 0.133432314 0.306557924 0
vt 0.133432314 0.997233033 0
vt 0.081626378 0.997232795 0
vt 0.0680290088 0.306557924 0
vt 0.0680290088 0.997232795 0
vt 0.0162229706 0.997232795 0
vt 0.0162229706 0.306557924 0
vt 0.514222682 0.214416921 0
vt 0.514222682 0.175481647 0
vt 0.662567437 0.175481647 0
vt 0.00262571312 0.997232795 0
vt 0.00262571312 0.306557924 0
vt 0.514222443 0.175482035 0
vt 0.662567437 0.175482035 0
vt 0.662567437 0.214417726 0
vt 0.514222443 0.214417726 0
vt 0.867753863 0.408404469 0
vt 0.92214334 0.408404469 0
vt 0.922143281 0.990843654 0
vt 0.867753804 0.990843654 0
vt 0.990130007 0.408404469 0
vt 0.990130007 0.990843654 0
vt 0.935740769 0.990843654 0
vt 0.935740829 0.408404469 0
vt 0.854156673 0.990843654 0
vt 0.854156733 0.408404469 0
vn 1 1.22340168e-07 -1.27147235e-13
vn 1 1.22340168e-07 -1.27147235e-13
vn 1 1.22340168e-07 -1.27147235e-13
vn 1 1.22340168e-07 -1.27147235e-13
vn -1 1.23379005e-08 -1.4847042e-07
vn -1 1.23379014e-08 -1.4847042e-07
vn -1 1.23379005e-08 -1.4847042e-07
vn -1 1.23379005e-08 -1.4847042e-07
vn 0 -0.57406795 0.818807662
vn 0 -0.57406795 0.818807662
vn 0 -0.57406795 0.818807662
vn 0 -0.57406795 0.818807662
vn 0 1 -1.18776313e-06
vn 0 1 -1.18776313e-06
vn 0 1 -1.18776313e-06
vn 0 1 -1.18776313e-06
vn 0 0.57406801 -0.818807662
vn 0 0.574068069 -0.818807662
vn 0 0.57406801 -0.818807662
vn 0 0.574068069 -0.818807662
vn 0 -1 8.1658709e-07
vn 0 -1 8.1658709e-07
vn 0 -1 8.16587203e-07
vn 0 -1 8.16587203e-07
vn 1 1.22340168e-07 1.27147221e-13
vn 1 1.22340168e-07 1.27147221e-13
vn 1 1.22340168e-07 1.27147221e-13
vn 1 1.22340168e-07 1.27147221e-13
vn -1 1.23378845e-08 1.48470392e-07
vn -1 1.23378845e-08 1.48470406e-07
vn -1 1.23378845e-08 1.48470392e-07
vn -1 1.23378854e-08 1.48470392e-07
vn 0 -0.574067891 -0.818807662
vn 0 -0.57406795 -0.818807721
vn 0 -0.574067891 -0.818807662
vn 0 -0.57406795 -0.818807721
vn 0 1 1.18776302e-06
vn 0 1 1.18776302e-06
vn 0 1 1.18776302e-06
vn 0 1 1.18776302e-06
vn 0 0.57406801 0.818807662
vn 0 0.574068069 0.818807662
vn 0 0.57406801 0.818807662
vn 0 0.574068069 0.818807662
vn 0 -1 -8.16586919e-07
vn 0 -0.99999994 -8.16586805e-07
vn 0 -0.99999994 -8.16586862e-07
vn 0 -1 -8.16586919e-07
vn 1 0 1.89537118e-07
vn 1 0 1.89537118e-07
vn 1 0 1.89537118e-07
vn 1 0 1.89537118e-07
vn -1 0 -6.31790442e-08
vn -1 0 -6.31790442e-08
vn -1 0 -6.31790442e-08
vn -1 0 -6.31790442e-08
vn 0 -1 0
vn 0 -0.99999994 0
vn 0 -1 0
vn 0 -1 0
vn 0 -0.315580845 0.948898733
vn 0 -0.315580845 0.948898733
vn 0 -0.315580845 0.948898733
vn 0 -0.315580845 0.948898733
vn 0 0.99999994 0
vn 0 1 0
vn 0 1 0
vn 0 1 0
vn 0 -0.315580815 -0.948898733
vn 0 -0.315580815 -0.948898733
vn 0 -0.315580815 -0.948898733
vn 0 -0.315580815 -0.948898733
vn 1 0 8.92355132e-08
vn 1 0 8.92355132e-08
vn 1 0 8.92355132e-08
vn 1 0 8.92355132e-08
vn -1 0 -5.94903433e-08
vn -1 0 -5.94903433e-08
vn -1 0 -5.94903433e-08
vn -1 0 -5.94903433e-08
vn 0 -1 0
vn 0 -1 0
vn 0 -1 0
vn 0 -1 0
vn 0 -0.380387813 0.924827099
vn 0 -0.380387813 0.924827099
vn 0 -0.380387813 0.924827099
vn 0 -0.380387813 0.924827099
vn 0 1 0
vn 0 1 0
vn 0 1 0
vn 0 1 0
vn 0 -0.380387872 -0.924827099
vn 0 -0.380387872 -0.924827099
vn 0 -0.380387872 -0.924827099
vn 0 -0.380387872 -0.924827099
vn -1 2.44680336e-07 -2.54294442e-13
vn -1 2.44680336e-07 -2.54294442e-13
vn -1 2.44680336e-07 -2.54294442e-13
vn -1 2.44680336e-07 -2.54294442e-13
vn 1 1.47015911e-07 -2.96940868e-07
vn 1 1.47015911e-07 -2.96940868e-07
vn 1 1.47015911e-07 -2.96940868e-07
vn 1 1.47015911e-07 -2.96940868e-07
vn 0 -0.57406795 0.818807662
vn 0 -0.57406795 0.818807662
vn 0 -0.57406795 0.818807662
vn 0 -0.57406795 0.818807662
vn 0 1 -1.18776313e-06
vn 0 1 -1.18776313e-06
vn 0 1 -1.18776313e-06
vn 0 1 -1.18776313e-06
vn 0 0.57406795 -0.818807662
vn 0 0.57406795 -0.818807662
vn 0 0.57406795 -0.818807662
vn 0 0.57406795 -0.818807662
vn 0 -1 8.16586976e-07
vn 0 -1 8.16586976e-07
vn 0 -1 8.16586976e-07
vn 0 -1 8.16586976e-07
vn -1 2.44680336e-07 2.54294442e-13
vn -1 2.44680336e-07 2.54294442e-13
vn -1 2.44680336e-07 2.54294442e-13
vn -1 2.44680336e-07 2.54294442e-13
vn 1 1.47015925e-07 2.96940897e-07
vn 1 1.47015939e-07 2.96940897e-07
vn 1 1.47015939e-07 2.96940897e-07
vn 1 1.47015925e-07 2.96940897e-07
vn 0 -0.57406795 -0.818807662
vn 0 -0.57406795 -0.818807662
vn 0 -0.57406795 -0.818807662
vn 0 -0.57406795 -0.818807662
vn 0 1 1.18776302e-06
vn 0 1 1.18776302e-06
vn 0 1 1.18776302e-06
vn 0 1 1.18776302e-06
vn 0 0.57406801 0.818807602
vn 0 0.57406801 0.818807602
vn 0 0.57406801 0.818807662
vn 0 0.574068069 0.818807662
vn 0 -1 -8.16586805e-07
vn 0 -1 -8.16586805e-07
vn 0 -1 -8.16586748e-07
vn 0 -1 -8.16586805e-07
vn -1 0 0
vn -1 0 0
vn -1 0 0
vn -1 0 0
vn 1 0 -1.26358088e-07
vn 1 0 -1.26358088e-07
vn 1 0 -1.26358088e-07
vn 1 0 -1.26358088e-07
vn 0 -1 0
vn 0 -0.99999994 0
vn 0 -1 0
vn 0 -1 0
vn 0 -0.315580845 0.948898733
vn 0 -0.315580845 0.948898733
vn 0 -0.315580845 0.948898733
vn 0 -0.315580845 0.948898733
vn 0 1 0
vn 0 1 0
vn 0 0.99999994 0
vn 0 1 0
vn 0 -0.315580815 -0.948898733
vn 0 -0.315580815 -0.948898733
vn 0 -0.315580815 -0.948898733
vn 0 -0.315580815 -0.948898733
vn -1 0 0
vn -1 0 0
vn -1 0 0
vn -1 0 0
vn 1 0 -1.18980687e-07
vn 1 0 -1.18980687e-07
vn 1 0 -1.18980687e-07
vn 1 0 -1.18980687e-07
vn 0 -1 0
vn 0 -0.99999994 0
vn 0 -1 0
vn 0 -1 0
vn 0 -0.380387872 0.924827099
vn 0 -0.380387872 0.924827099
vn 0 -0.380387872 0.924827099
vn 0 -0.380387872 0.924827099
vn 0 1 0
vn 0 1 0
vn 0 0.99999994 0
vn 0 1 0
vn 0 -0.380387902 -0.924827099
vn 0 -0.380387902 -0.924827099
vn 0 -0.380387902 -0.924827099
vn 0 -0.380387902 -0.924827099
vn 0 -1 0
vn 0 -1 0
vn 0 -1 0
vn 0 -1 0
vn 0 1 0
vn 0 1 0
vn 0 1 0
vn 0 1 0
vn 0 0 1
vn 0 0 1
vn 0 0 1
vn 0 0 1
vn 1 0 0
vn 1 0 0
vn 1 0 0
vn 1 0 0
vn 0 0 -1
vn 0 0 -1
vn 0 0 -1
vn 0 0 -1
vn -1 0 0
vn -1 0 0
vn -1 0 0
vn -1 0 0
vn 0 -1 0
vn 0 -1 0
vn 0 -1 0
vn 0 -1 0
vn 0 1 0
vn 0 1 0
vn 0 1 0
vn 0 1 0
vn 0 0 1
vn 0 0 1
vn 0 0 1
vn 0 0 1
vn 1 0 0
vn 1 0 0
vn 1 0 0
vn 1 0 0
vn 0 0 -1
vn 0 0 -1
vn 0 0 -1
vn 0 0 -1
vn -1 0 0
vn -1 0 0
vn -1 0 0
vn -1 0 0
vn 0 -1 0
vn 0 -1 0
vn 0 -1 0
vn 0 -1 0
vn 0 1 0
vn 0 1 0
vn 0 1 0
vn 0 1 0
vn 0 0 -1
vn 0 0 -1
vn 0 0 -1
vn 0 0 -1
vn 1 0 0
vn 1 0 0
vn 1 0 0
vn 1 0 0
vn 0 0 1
vn 0 0 1
vn 0 0 1
vn 0 0 1
vn -1 0 0
vn -1 0 0
vn -1 0 0
vn -1 0 0
vn 0 -1 0
vn 0 -1 0
vn 0 -1 0
vn 0 -1 0
vn 0 1 0
vn 0 1 0
vn 0 1 0
vn 0 1 0
vn 0 0 -1
vn 0 0 -1
vn 0 0 -1
vn 0 0 -1
vn 1 0 0
vn 1 0 0
vn 1 0 0
vn 1 0 0
vn 0 0 1
vn 0 0 1
vn 0 0 1
vn 0 0 1
vn -1 0 0
vn -1 0 0
vn -1 0 0
vn -1 0 0
vn 0 -1 0
vn 0 -1 0
vn 0 -1 0
vn 0 -1 0
vn 0 1 0
vn 0 1 0
vn 0 1 0
vn 0 1 0
vn 0 0 1
vn 0 0 1
vn 0 0 1
vn 0 0 1
vn 1 0 0
vn 1 0 0
vn 1 0 0
vn 1 0 0
vn 0 0 -1
vn 0 0 -1
vn 0 0 -1
vn 0 0 -1
vn -1 0 0
vn -1 0 0
vn -1 0 0
vn -1 0 0
vn 0 -1 0
vn 0 -1 0
vn 0 -1 0
vn 0 -1 0
vn 0 1 0
vn 0 1 0
vn 0 1 0
vn 0 1 0
vn 0 0 1
vn 0 0 1
vn 0 0 1
vn 0 0 1
vn 1 0 0
vn 1 0 0
vn 1 0 0
vn 1 0 0
vn 0 0 -1
vn 0 0 -1
vn 0 0 -1
vn 0 0 -1
vn -1 0 0
vn -1 0 0
vn -1 0 0
vn -1 0 0
vn 0 -1 0
vn 0 -1 0
vn 0 -1 0
vn 0 -1 0
vn 0 1 0
vn 0 1 0
vn 0 1 0
vn 0 1 0
vn 0 0 1
vn 0 0 1
vn 0 0 1
vn 0 0 1
vn 1 0 0
vn 1 0 0
vn 1 0 0
vn 1 0 0
vn 0 0 -1
vn 0 0 -1
vn 0 0 -1
vn 0 0 -1
vn -1 0 0
vn -1 0 0
vn -1 0 0
vn -1 0 0
vn 0 -1 0
vn 0 -1 0
vn 0 -1 0
vn 0 -1 0
vn 0 1 0
vn 0 1 0
vn 0 1 0
vn 0 1 0
vn 0 0 1
vn 0 0 1
vn 0 0 1
vn 0 0 1
vn 1 0 0
vn 1 0 0
vn 1 0 0
vn 1 0 0
vn 0 0 -1
vn 0 0 -1
vn 0 0 -1
vn 0 0 -1
vn -1 0 0
vn -1 0 0
vn -1 0 0
vn -1 0 0
vn 0 -1 0
vn 0 -1 0
vn 0 -1 0
vn 0 -1 0
vn 0 1 0
vn 0 1 0
vn 0 1 0
vn 0 1 0
vn 0 0 1
vn 0 0 1
vn 0 0 1
vn 0 0 1
vn 1 0 0
vn 1 0 0
vn 1 0 0
vn 1 0 0
vn 0 0 -1
vn 0 0 -1
vn 0 0 -1
vn 0 0 -1
vn -1 0 0
vn -1 0 0
vn -1 0 0
vn -1 0 0
vn 0 -1 0
vn 0 -1 0
vn 0 -1 0
vn 0 -1 0
vn 0 1 0
vn 0 1 0
vn 0 1 0
vn 0 1 0
vn 0 0 1
vn 0 0 1
vn 0 0 1
vn 0 0 1
vn 1 0 0
vn 1 0 0
vn 1 0 0
vn 1 0 0
vn 0 0 -1
vn 0 0 -1
vn 0 0 -1
vn 0 0 -1
vn -1 0 0
vn -1 0 0
vn -1 0 0
vn -1 0 0
vn 0 0 -1
vn 0 0 -1
vn 0 0 -1
vn 0 0 -1
vn 0 0 1
vn 0 0 1
vn 0 0 1
vn 0 0 1
vn 0 -1 0
vn 0 -1 0
vn 0 -1 0
vn 0 -1 0
vn 0 1 0
vn 0 1 0
vn 0 1 0
vn 0 1 0
g 
usemtl picnictableMaterial
f 1/1/1 3/2/2 4/3/3 2/4/4
f 5/5/5 6/6/6 8/7/7 7/8/8
f 1/9/9 2/10/10 6/6/11 5/5/12
f 2/11/13 4/12/14 8/13/15 6/14/16
f 4/3/17 3/2/18 7/8/19 8/7/20
f 3/15/21 1/16/22 5/17/23 7/18/24
f 9/19/25 12/20/26 11/21/27 10/22/28
f 13/23/29 16/24/30 15/25/31 14/26/32
f 9/27/33 13/23/34 14/26/35 12/28/36
f 12/29/37 14/30/38 15/31/39 11/32/40
f 11/21/41 15/25/42 16/24/43 10/22/44
f 10/18/45 16/15/46 13/16/47 9/17/48
f 17/33/49 19/34/50 20/35/51 18/36/52
f 21/37/53 22/38/54 24/39/55 23/40/56
f 17/33/57 18/36/58 22/38/59 21/37/60
f 18/41/61 20/42/62 24/43/63 22/44/64
f 20/45/65 19/46/66 23/40/67 24/39/68
f 19/47/69 17/48/70 21/49/71 23/50/72
f 25/51/73 27/52/74 28/53/75 26/54/76
f 29/55/77 30/56/78 32/57/79 31/58/80
f 25/59/81 26/60/82 30/56/83 29/55/84
f 26/61/85 28/62/86 32/63/87 30/64/88
f 28/53/89 27/52/90 31/58/91 32/57/92
f 27/65/93 25/66/94 29/67/95 31/68/96
f 33/69/97 36/70/98 35/71/99 34/72/100
f 37/23/101 40/73/102 39/74/103 38/75/104
f 33/27/105 37/23/106 38/75/107 36/76/108
f 36/29/109 38/30/110 39/31/111 35/32/112
f 35/71/113 39/74/114 40/73/115 34/72/116
f 34/18/117 40/15/118 37/16/119 33/17/120
f 41/1/121 44/77/122 43/78/123 42/79/124
f 45/80/125 48/81/126 47/82/127 46/83/128
f 41/84/129 42/85/130 48/81/131 45/80/132
f 42/11/133 43/12/134 47/86/135 48/87/136
f 43/78/137 44/77/138 46/83/139 47/82/140
f 44/15/141 41/16/142 45/17/143 46/18/144
f 49/88/145 52/89/146 51/90/147 50/35/148
f 53/38/149 56/91/150 55/92/151 54/93/152
f 49/88/153 53/38/154 54/93/155 52/89/156
f 52/94/157 54/95/158 55/96/159 51/97/160
f 51/98/161 55/92/162 56/91/163 50/99/164
f 50/100/165 56/101/166 53/102/167 49/103/168
f 57/104/169 60/105/170 59/106/171 58/53/172
f 61/107/173 64/108/174 63/109/175 62/110/176
f 57/60/177 61/107/178 62/110/179 60/111/180
f 60/112/181 62/113/182 63/114/183 59/115/184
f 59/106/185 63/109/186 64/108/187 58/53/188
f 58/116/189 64/117/190 61/118/191 57/119/192
f 65/120/193 67/121/194 68/122/195 66/123/196
f 69/124/197 70/125/198 72/126/199 71/127/200
f 65/120/201 66/123/202 70/125/203 69/124/204
f 66/128/205 68/129/206 72/130/207 70/131/208
f 68/132/209 67/133/210 71/127/211 72/126/212
f 67/134/213 65/135/214 69/136/215 71/129/216
f 73/137/217 75/138/218 76/139/219 74/140/220
f 77/141/221 78/142/222 80/143/223 79/144/224
f 73/137/225 74/140/226 78/142/227 77/141/228
f 74/145/229 76/146/230 80/147/231 78/148/232
f 76/149/233 75/150/234 79/144/235 80/143/236
f 75/151/237 73/152/238 77/145/239 79/146/240
f 81/153/241 84/154/242 83/155/243 82/156/244
f 85/157/245 88/158/246 87/159/247 86/160/248
f 81/153/249 85/157/250 86/160/251 84/154/252
f 84/161/253 86/162/254 87/163/255 83/129/256
f 83/164/257 87/159/258 88/158/259 82/165/260
f 82/134/261 88/166/262 85/167/263 81/168/264
f 89/169/265 92/140/266 91/170/267 90/171/268
f 93/172/269 96/173/270 95/143/271 94/174/272
f 89/169/273 93/172/274 94/174/275 92/140/276
f 92/145/277 94/148/278 95/147/279 91/146/280
f 91/175/281 95/143/282 96/173/283 90/176/284
f 90/151/285 96/177/286 93/178/287 89/152/288
f 97/179/289 99/180/290 100/181/291 98/182/292
f 101/183/293 102/184/294 104/185/295 103/186/296
f 97/187/297 98/188/298 102/184/299 101/183/300
f 98/189/301 100/190/302 104/191/303 102/192/304
f 100/181/305 99/180/306 103/186/307 104/185/308
f 99/193/309 97/194/310 101/195/311 103/190/312
f 105/196/313 107/197/314 108/198/315 106/199/316
f 109/200/317 110/201/318 112/202/319 111/203/320
f 105/204/321 106/205/322 110/201/323 109/200/324
f 106/206/325 108/207/326 112/208/327 110/209/328
f 108/198/329 107/197/330 111/203/331 112/202/332
f 107/210/333 105/211/334 109/212/335 111/207/336
f 113/213/337 115/214/338 116/215/339 114/216/340
f 117/217/341 118/218/342 120/219/343 119/220/344
f 113/221/345 114/222/346 118/218/347 117/217/348
f 114/223/349 116/224/350 120/225/351 118/226/352
f 116/215/353 115/214/354 119/220/355 120/219/356
f 115/227/357 113/228/358 117/229/359 119/224/360
f 121/230/361 123/231/362 124/232/363 122/233/364
f 125/234/365 126/235/366 128/236/367 127/237/368
f 121/230/369 122/233/370 126/235/371 125/234/372
f 122/224/373 124/238/374 128/239/375 126/240/376
f 124/241/377 123/242/378 127/237/379 128/236/380
f 123/243/381 121/244/382 125/245/383 127/246/384
f 129/247/385 131/248/386 132/249/387 130/250/388
f 133/251/389 134/202/390 136/252/391 135/253/392
f 129/247/393 130/250/394 134/202/395 133/251/396
f 130/207/397 132/206/398 136/254/399 134/208/400
f 132/255/401 131/256/402 135/253/403 136/252/404
f 131/257/405 129/258/406 133/259/407 135/260/408
f 137/261/409 139/262/410 140/263/411 138/264/412
f 141/265/413 142/266/414 144/267/415 143/268/416
f 137/261/417 138/264/418 142/266/419 141/265/420
f 138/190/421 140/269/422 144/270/423 142/271/424
f 140/272/425 139/273/426 143/268/427 144/267/428
f 139/274/429 137/275/430 141/276/431 143/277/432
f 145/278/433 147/279/434 148/280/435 146/281/436
f 149/282/437 150/283/438 152/284/439 151/285/440
f 145/278/441 146/281/442 150/286/443 149/287/444
f 148/280/445 147/279/446 151/285/447 152/284/448
